<svg xmlns="http://www.w3.org/2000/svg" version="1.1" xmlns:xlink="http://www.w3.org/1999/xlink" xmlns:svgjs="http://svgjs.dev/svgjs" width="2000" height="530" viewBox="0 0 2000 530"><g transform="matrix(1,0,0,1,-1.2121212121212466,0.5329371643680361)"><svg viewBox="0 0 396 105" data-background-color="#d92cf9" preserveAspectRatio="xMidYMid meet" height="530" width="2000" xmlns="http://www.w3.org/2000/svg" xmlns:xlink="http://www.w3.org/1999/xlink"><g id="tight-bounds" transform="matrix(1,0,0,1,0.2400000000000091,-0.10558189105404381)"><svg viewBox="0 0 395.52 105.21116378210807" height="105.21116378210807" width="395.52"><g><svg viewBox="0 0 397.4975999999999 105.7372196010186" height="105.21116378210807" width="395.52"><g><rect width="397.4975999999999" height="3.238591382427042" x="0" y="58.10852763042254" fill="#81ffd9" opacity="1" stroke-width="0" stroke="transparent" fill-opacity="1" class="rect-qz-0" data-fill-palette-color="secondary" rx="1%" id="qz-0" data-palette-color="#81ffd9"></rect></g><g transform="matrix(1,0,0,1,0.9887999999999693,69.82510692496226)"><svg viewBox="0 0 395.52 35.91211267605634" height="35.91211267605634" width="395.52"><g id="textblocktransform"><svg viewBox="0 0 395.52 35.91211267605634" height="35.91211267605634" width="395.52" id="textblock"><g><svg viewBox="0 0 395.52 35.91211267605634" height="35.91211267605634" width="395.52"><g transform="matrix(1,0,0,1,0,0)"><svg width="395.52" viewBox="0 -33.2 365.62 33.2" height="35.91211267605634" data-palette-color="#d92cf9"><path d="M7.3 0L0 0 14.65-29.4 24.5-29.4 39.1 0 31.4 0 28.45-6.35 10.55-6.35 7.3 0ZM19.25-24.9L12.35-11.25 26.6-11.25 19.75-24.9 19.25-24.9ZM46.2 0L42.1 0 42.1-31.7 48.2-31.7 48.2-21.8Q50.35-22.05 53.27-22.23 56.2-22.4 59.95-22.4L59.95-22.4 62.5-22.4Q65-22.4 66.35-21.75 67.7-21.1 68.27-20.1 68.85-19.1 68.97-18 69.1-16.9 69.1-16L69.1-16 69.1-6.4Q69.1-5.65 68.97-4.58 68.85-3.5 68.27-2.45 67.7-1.4 66.35-0.7 65 0 62.5 0L62.5 0 59.95 0Q55.8 0 52.7-0.23 49.6-0.45 47.55-0.7L47.55-0.7 46.2 0ZM49.75-4.3L49.75-4.3 60.6-4.3Q63-4.3 63-6.3L63-6.3 63-16.1Q63.05-17.2 62.55-17.65 62.05-18.1 60.6-18.1L60.6-18.1 58.1-18.1Q54.9-18.1 52.42-17.98 49.95-17.85 48.2-17.7L48.2-17.7 48.2-5.85Q48.2-4.8 48.42-4.55 48.65-4.3 49.75-4.3ZM83.19 0L80.69 0Q78.19 0 76.84-0.65 75.5-1.3 74.92-2.3 74.34-3.3 74.22-4.4 74.09-5.5 74.09-6.4L74.09-6.4 74.09-16Q74.09-16.75 74.22-17.82 74.34-18.9 74.92-19.95 75.5-21 76.87-21.7 78.25-22.4 80.69-22.4L80.69-22.4 83.25-22.4Q87.84-22.4 90.67-22.23 93.5-22.05 95-21.85L95-21.85 95-31.7 101.09-31.7 101.09 0 97 0 95.05-1Q92.94-0.65 90-0.33 87.05 0 83.19 0L83.19 0ZM82.59-4.3L82.59-4.3 93.44-4.3Q94.5-4.3 94.75-4.55 95-4.8 95-5.8L95-5.8 95-17.75Q93.3-17.85 90.69-17.98 88.09-18.1 85.14-18.1L85.14-18.1 82.59-18.1Q80.19-18.1 80.19-16.1L80.19-16.1 80.19-6.3Q80.19-4.3 82.59-4.3ZM116.74 0L114.19 0Q111.74 0 110.37-0.65 108.99-1.3 108.42-2.3 107.84-3.3 107.72-4.4 107.59-5.5 107.59-6.4L107.59-6.4 107.59-22.4 113.69-22.4 113.69-6.3Q113.64-5.2 114.42-4.75 115.19-4.3 116.09-4.3L116.09-4.3 125.99-4.3Q127.09-4.3 127.29-4.5 127.49-4.7 127.49-5.8L127.49-5.8 127.49-22.4 133.59-22.4 133.59 0 129.49 0 127.59-1Q125.59-0.6 122.87-0.3 120.14 0 116.74 0L116.74 0ZM146.19 0L140.09 0 140.09-27.7 139.59-31.7 146.19-31.7 146.19 0ZM158.79 0L152.69 0 152.69-27.7 152.19-31.7 158.79-31.7 158.79 0ZM173.73 0L171.23 0Q167.44 0 165.73-1.78 164.03-3.55 164.03-6.65L164.03-6.65Q164.03-9.9 165.81-11.65 167.59-13.4 171.23-13.4L171.23-13.4 173.78-13.4Q177.53-13.4 180.53-13.2 183.53-13 185.49-12.8L185.49-12.8 185.49-16.1Q185.49-16.55 185.38-17.03 185.28-17.5 184.78-17.8 184.28-18.1 183.09-18.1L183.09-18.1 180.59-18.1Q175.13-18.1 171.48-17.93 167.84-17.75 166.53-17.6L166.53-17.6 165.98-21.4Q165.98-22.1 169.78-22.25 173.59-22.4 182.49-22.4L182.49-22.4 184.99-22.4Q187.49-22.4 188.84-21.7 190.19-21 190.76-19.95 191.34-18.9 191.46-17.82 191.59-16.75 191.59-16L191.59-16 191.59 0 187.49 0 185.53-1Q183.44-0.65 180.48-0.33 177.53 0 173.73 0L173.73 0ZM172.53-4.3L172.53-4.3 183.99-4.3Q185.09-4.3 185.28-4.5 185.49-4.7 185.49-5.75L185.49-5.75 185.49-9.6 172.53-9.6Q171.19-9.6 170.66-8.95 170.13-8.3 170.13-6.9L170.13-6.9Q170.13-5.5 170.73-4.9 171.34-4.3 172.53-4.3ZM203.43 0L197.33 0 197.33-32.4 203.43-32.4 203.43-21.4Q205.53-21.8 208.48-22.1 211.43-22.4 215.23-22.4L215.23-22.4 217.73-22.4Q220.23-22.4 221.58-21.7 222.93-21 223.51-19.95 224.08-18.9 224.21-17.82 224.33-16.75 224.33-16L224.33-16 224.33 0 218.23 0 218.23-16.1Q218.23-18.1 215.83-18.1L215.83-18.1 204.93-18.1Q203.98-18.1 203.71-17.93 203.43-17.75 203.43-17L203.43-17 203.43 0ZM265.88 0L242.08 0 242.58-4 242.58-29.4 249.18-29.4 249.18-4.8 269.88-4.8 271.88-0.55Q271.88-0.35 270.53-0.18 269.18 0 265.88 0L265.88 0ZM284.32 0L281.82 0Q278.02 0 276.32-1.78 274.63-3.55 274.63-6.65L274.63-6.65Q274.63-9.9 276.4-11.65 278.18-13.4 281.82-13.4L281.82-13.4 284.38-13.4Q288.13-13.4 291.13-13.2 294.13-13 296.07-12.8L296.07-12.8 296.07-16.1Q296.07-16.55 295.98-17.03 295.88-17.5 295.38-17.8 294.88-18.1 293.68-18.1L293.68-18.1 291.18-18.1Q285.73-18.1 282.07-17.93 278.43-17.75 277.13-17.6L277.13-17.6 276.57-21.4Q276.57-22.1 280.38-22.25 284.18-22.4 293.07-22.4L293.07-22.4 295.57-22.4Q298.07-22.4 299.43-21.7 300.77-21 301.35-19.95 301.93-18.9 302.05-17.82 302.18-16.75 302.18-16L302.18-16 302.18 0 298.07 0 296.13-1Q294.02-0.65 291.07-0.33 288.13 0 284.32 0L284.32 0ZM283.13-4.3L283.13-4.3 294.57-4.3Q295.68-4.3 295.88-4.5 296.07-4.7 296.07-5.75L296.07-5.75 296.07-9.6 283.13-9.6Q281.77-9.6 281.25-8.95 280.73-8.3 280.73-6.9L280.73-6.9Q280.73-5.5 281.32-4.9 281.93-4.3 283.13-4.3ZM318.17 0L316.62 0Q312.82 0 311.42-1.6 310.02-3.2 310.02-6.4L310.02-6.4 310.02-18.1 305.92-18.1 305.92-22.4 308.02-22.4Q308.97-22.4 309.4-22.7 309.82-23 310.02-23.9L310.02-23.9 311.02-29.25 316.12-29.25 316.12-22.4 326.52-22.4 326.52-18.1 316.12-18.1 316.12-6.35Q316.12-5.1 316.72-4.7 317.32-4.3 318.52-4.3L318.52-4.3 325.57-4.3 326.07-0.5Q325.02-0.35 322.87-0.18 320.72 0 318.17 0L318.17 0ZM334.07-25.55L334.07-25.55Q332.22-25.55 331.37-26.3 330.52-27.05 330.52-28.8L330.52-28.8Q330.52-30.6 331.35-31.33 332.17-32.05 334.07-32.05L334.07-32.05Q335.97-32.05 336.82-31.33 337.67-30.6 337.67-28.8L337.67-28.8Q337.67-27.1 336.82-26.33 335.97-25.55 334.07-25.55ZM337.12 0L331.02 0 331.02-22.4 337.12-22.4 337.12 0ZM350.87 0L344.77 0 344.77-18.1 341.67-18.1 341.67-22.35 344.77-22.35 344.77-26.8Q344.77-28.5 345.44-29.95 346.12-31.4 347.69-32.3 349.27-33.2 351.87-33.2L351.87-33.2 354.37-33.2Q360.37-33.2 362.99-32.65 365.62-32.1 365.62-31.7L365.62-31.7 364.12-27.9Q363.27-28.25 361.07-28.58 358.87-28.9 355.77-28.9L355.77-28.9 353.27-28.9Q352.02-28.9 351.44-28.45 350.87-28 350.87-26.9L350.87-26.9 350.87-22.35 361.27-22.35 361.27-18.1 350.87-18.1 350.87 0Z" opacity="1" transform="matrix(1,0,0,1,0,0)" fill="#d92cf9" class="wordmark-text-0" data-fill-palette-color="primary" id="text-0"></path></svg></g></svg></g></svg></g></svg></g><g transform="matrix(1,0,0,1,162.5818573286994,0)"><svg viewBox="0 0 72.33388534260106 49.63053971830987" height="49.63053971830987" width="72.33388534260106"><g><svg xmlns="http://www.w3.org/2000/svg" xmlns:xlink="http://www.w3.org/1999/xlink" version="1.1" x="7.9999999999999964" y="0" viewBox="6.3 11.5 87.4 77" style="enable-background:new 0 0 100 100;" xml:space="preserve" height="49.63053971830987" width="56.33388534260107" class="icon-icon-0" data-fill-palette-color="accent" id="icon-0"><path d="M72.3 12.3L72.3 12.3 72.3 12.3l-0.4-0.8H28.2L6.3 50l21.8 38.5h43.7L93.7 50 72.3 12.3zM33.3 25.3L9.9 47.7l18.6-32.8L33.3 25.3zM70.7 14.8l6.4 35.7L36.9 25.8 70.7 14.8zM35.5 27.3l41 25.2-41 23.3V27.3zM77 54.5l-7.2 30.8-32.6-8.1L77 54.5zM33.5 75L9.9 50.5l23.6-22.7V75zM33.2 77.6l-4.6 7.7L11.5 55.1 33.2 77.6zM35 78.6l31.4 7.9H30.2L35 78.6zM79.3 53.3l11.6-2.5L72.1 84 79.3 53.3zM90.7 48.9l-11.4 2.5-5.9-33.1L90.7 48.9zM35 24.3l-5-10.8h38.2L35 24.3z" fill="#d92cf9" data-fill-palette-color="accent"></path></svg></g></svg></g><g><rect width="86.04873732869946" height="3.238591382427042" y="45.39194833588283" x="234.91574267130048" fill="#81ffd9" data-fill-palette-color="secondary"></rect><rect width="86.04873732869946" height="3.238591382427042" y="45.39194833588283" x="76.53311999999997" fill="#81ffd9" data-fill-palette-color="secondary"></rect></g></svg></g><defs></defs></svg><rect width="395.52" height="105.21116378210807" fill="none" stroke="none" visibility="hidden"></rect></g></svg></g></svg>